<svg width="445" height="389" viewBox="0 0 445 389" fill="none" xmlns="http://www.w3.org/2000/svg">
<path d="M46.8002 387.7C46.8002 387.7 -67.0998 274.7 63.9002 191.4C194.8 108.1 141 110 149.9 57.2C158.8 4.39998 265.3 -32.1 303.7 42.1C342 116.4 305.3 154.5 377.1 199.1C449 243.7 465.5 338.3 415.9 387.6H46.8002V387.7Z" fill="#92E3A9"/>
<path opacity="0.7" d="M46.8002 387.7C46.8002 387.7 -67.0998 274.7 63.9002 191.4C194.8 108.1 141 110 149.9 57.2C158.8 4.39998 265.3 -32.1 303.7 42.1C342 116.4 305.3 154.5 377.1 199.1C449 243.7 465.5 338.3 415.9 387.6H46.8002V387.7Z" fill="white"/>
<path d="M240.6 83.7H195.6V47.6" stroke="#263238" stroke-miterlimit="10" stroke-linecap="round" stroke-linejoin="round"/>
<path d="M203.7 77.2H200.1V83.8H203.7V77.2Z" stroke="#263238" stroke-miterlimit="10" stroke-linecap="round" stroke-linejoin="round"/>
<path d="M211.1 75.1H207.5V83.8H211.1V75.1Z" stroke="#263238" stroke-miterlimit="10" stroke-linecap="round" stroke-linejoin="round"/>
<path d="M218.6 71.6H215V83.7H218.6V71.6Z" stroke="#263238" stroke-miterlimit="10" stroke-linecap="round" stroke-linejoin="round"/>
<path d="M226.1 68.1H222.5V83.7H226.1V68.1Z" stroke="#263238" stroke-miterlimit="10" stroke-linecap="round" stroke-linejoin="round"/>
<path d="M233.6 63.2H230V83.7H233.6V63.2Z" stroke="#263238" stroke-miterlimit="10" stroke-linecap="round" stroke-linejoin="round"/>
<path d="M195.6 77.4C195.6 77.4 224.5 71.3 238.3 53" stroke="#263238" stroke-miterlimit="10" stroke-linecap="round" stroke-linejoin="round"/>
<path d="M236.4 52.4L239.2 51.6V54.7" stroke="#263238" stroke-miterlimit="10" stroke-linecap="round" stroke-linejoin="round"/>
<path d="M230 29.7C228.7 29.4 227.4 29.2 226.1 29" stroke="#263238" stroke-miterlimit="10" stroke-linecap="round" stroke-linejoin="round"/>
<path d="M241.4 103.9C252.1 109.4 266.9 109.8 266.9 109.8C259.4 104.7 254.3 97.2 251.7 92.7C259.6 85.9 264.5 76.6 264.5 66.4C264.5 50.6 252.9 37.1 236.4 31.4" stroke="#263238" stroke-miterlimit="10" stroke-linecap="round" stroke-linejoin="round"/>
<path d="M219 104.4C225.5 104.4 231.6 103.3 237.2 101.3" stroke="#263238" stroke-miterlimit="10" stroke-linecap="round" stroke-linejoin="round"/>
<path d="M178.4 83.7C184.9 94.2 197.1 101.9 211.5 103.8" stroke="#263238" stroke-miterlimit="10" stroke-linecap="round" stroke-linejoin="round"/>
<path d="M173.4 66.5C173.4 68.5 173.6 70.5 174 72.5" stroke="#263238" stroke-miterlimit="10" stroke-linecap="round" stroke-linejoin="round"/>
<path d="M219 28.5C198.8 28.5 181.6 39.5 175.7 54.7" stroke="#263238" stroke-miterlimit="10" stroke-linecap="round" stroke-linejoin="round"/>
<path d="M297.9 129.7C297.9 129.7 278.7 135.4 274.4 144.6C270.1 153.8 261.4 179.5 261.4 179.5C261.4 179.5 253.3 193.8 253.3 198.2C253.3 202.5 265.3 218.6 270.7 222.9C276.1 227.2 296.4 198.7 296.4 198.7L297.9 129.7Z" fill="white" stroke="#263238" stroke-miterlimit="10" stroke-linecap="round" stroke-linejoin="round"/>
<path d="M384.8 257.5C385.1 257.7 385.8 267.3 385.8 267.3C385.8 267.3 390.9 277.4 390.9 292.9C390.8 308.4 395.8 387.8 395.8 387.8H273C273 387.8 281.5 328.3 293.6 298.2C293.6 298.2 294 273.5 300.6 266.6C300.6 266.6 297.7 256.5 303.6 255.2C309.5 254 384.8 257.5 384.8 257.5Z" fill="#999999"/>
<path opacity="0.2" d="M395.8 387.9H273C273 387.9 281.5 328.4 293.6 298.3C293.6 298.3 293.7 293.6 294.3 287.7C300 290.4 307.4 294.3 309.5 297C313 301.5 300.6 308.1 300.6 308.1C300.6 308.1 304 312.1 309.5 311.6C315 311.1 336.6 306.1 336.6 306.1C336.6 306.1 328.5 311 329.5 314.5C330.5 318 339.4 329.4 344.2 332.2C349 335 334.4 329.4 334.4 329.4C334.4 329.4 351 356.3 361 361.6C371 367 391.4 350.3 388.5 349C385.6 347.6 373.7 331.5 375.8 328.7C377 327.1 384.4 331.3 392.5 333.3C394 359.5 395.8 387.9 395.8 387.9Z" fill="black"/>
<path d="M384.8 257.5C385.1 257.7 385.8 267.3 385.8 267.3C385.8 267.3 390.9 277.4 390.9 292.9C390.8 308.4 395.8 387.8 395.8 387.8H273C273 387.8 281.5 328.3 293.6 298.2C293.6 298.2 294 273.5 300.6 266.6C300.6 266.6 297.7 256.5 303.6 255.2C309.5 254 384.8 257.5 384.8 257.5Z" stroke="#263238" stroke-miterlimit="10" stroke-linecap="round" stroke-linejoin="round"/>
<path d="M303.3 257.9C303.3 257.9 302.5 262.6 303.3 266.5C303.3 266.5 316.2 276 333.9 276.7C351.6 277.5 376.7 272.7 383.6 268.7V259.2L303.3 257.9Z" fill="#263238"/>
<path d="M314.5 263.1C314.5 263.1 313 271 314.5 274C316 277 329.6 277.8 329.6 277.8L329.2 266.5L314.5 263.1Z" fill="#BFBFBF" stroke="#263238" stroke-miterlimit="10" stroke-linecap="round" stroke-linejoin="round"/>
<path d="M361 279.3C361 279.3 360.6 273.3 358.9 266.5L354.7 266.6C354.7 266.6 357 274.3 355.7 279.3" fill="#999999"/>
<path d="M361 279.3C361 279.3 360.6 273.3 358.9 266.5L354.7 266.6C354.7 266.6 357 274.3 355.7 279.3" stroke="#263238" stroke-miterlimit="10" stroke-linecap="round" stroke-linejoin="round"/>
<path opacity="0.2" d="M296.9 175.6L296.4 198.6C296.4 198.6 289.7 208.1 283 215.2C282.7 212.2 282.5 208.7 282.1 204.6C280.4 185.9 286.8 170.9 286.4 169.8L296.9 175.6Z" fill="#92E3A9"/>
<path d="M289.1 133C296.3 129.6 301.2 128 301.2 128C301.7 126.6 300.5 122.6 313 116.1C325.5 109.6 343.6 113.7 343.6 113.7L350.6 122.4C350.6 122.4 374.9 132.1 380.6 137C386.3 141.9 391 256.4 386.3 260.6C372.9 272.3 316 273.9 300.6 258.4C297.3 255.1 295 230.9 288.6 195C288.6 195 276.4 167 277.1 151.7" fill="white"/>
<path d="M289.1 133C296.3 129.6 301.2 128 301.2 128C301.7 126.6 300.5 122.6 313 116.1C325.5 109.6 343.6 113.7 343.6 113.7L350.6 122.4C350.6 122.4 374.9 132.1 380.6 137C386.3 141.9 391 256.4 386.3 260.6C372.9 272.3 316 273.9 300.6 258.4C297.3 255.1 295 230.9 288.6 195C288.6 195 276.4 167 277.1 151.7" stroke="#263238" stroke-miterlimit="10" stroke-linecap="round" stroke-linejoin="round"/>
<path opacity="0.2" d="M350.3 124.1C350.3 124.1 351.6 136.1 339.3 144.1C339.3 144.1 333.6 140.5 329.6 140.1C325.6 139.7 324.2 141.1 324.2 141.1C324.2 141.1 323.4 136.4 325.3 133.3C327.2 130.2 331 132.6 337.2 141.1C337.2 141.1 347.6 136 350.3 124.1Z" fill="#92E3A9"/>
<path opacity="0.2" d="M312.1 136.9C312.1 136.9 307.2 137.1 304.8 141.1C302.4 145.1 301.6 146.6 301.6 146.6C301.6 146.6 297.7 142.7 300.6 130.7C300.6 130.7 300 136.5 301.1 141.1C301.1 141.1 303.6 131.8 304.8 131.7C306 131.6 308.5 132.3 312.1 136.9Z" fill="#92E3A9"/>
<path d="M304.8 110.4C304.8 110.4 311.4 116.7 309 127L317.8 141.2L323.2 128.6C323.2 128.6 335.7 125.4 339.4 116.8C339.4 116.8 331.1 103.4 333.6 84.5C336 65.7 304.8 110.4 304.8 110.4Z" fill="#BFBFBF" stroke="#263238" stroke-miterlimit="10" stroke-linecap="round" stroke-linejoin="round"/>
<path d="M334.3 93.2C338.2 64.3 329.5 52.8 306.8 54.4C284.1 56 283.7 81.4 289.1 92.2C290.9 95.8 290.3 103.7 301.6 116.4C305.9 121.3 317.3 117.6 325.4 109.6" fill="#BFBFBF"/>
<path d="M334.3 93.2C338.2 64.3 329.5 52.8 306.8 54.4C284.1 56 283.7 81.4 289.1 92.2C290.9 95.8 290.3 103.7 301.6 116.4C305.9 121.3 317.3 117.6 325.4 109.6" stroke="#263238" stroke-miterlimit="10" stroke-linecap="round" stroke-linejoin="round"/>
<path d="M300.5 86.3C300.5 86.3 302.7 82.4 308.8 86.3" stroke="#263238" stroke-miterlimit="10" stroke-linecap="round" stroke-linejoin="round"/>
<path d="M291.4 86.3C291.4 86.3 288.1 83.6 287.1 86.3" stroke="#263238" stroke-miterlimit="10" stroke-linecap="round" stroke-linejoin="round"/>
<path d="M305.294 94.3378C305.882 94.1848 306.145 93.2374 305.88 92.2219C305.616 91.2063 304.925 90.5071 304.337 90.6602C303.749 90.8132 303.487 91.7605 303.751 92.7761C304.015 93.7916 304.706 94.4908 305.294 94.3378Z" fill="#263238"/>
<path d="M293.092 94.3253C293.68 94.1723 293.942 93.225 293.678 92.2094C293.414 91.1939 292.723 90.4947 292.135 90.6477C291.547 90.8007 291.285 91.7481 291.549 92.7636C291.813 93.7792 292.504 94.4784 293.092 94.3253Z" fill="#263238"/>
<path d="M294.2 88.5C296.7 91.9 294.4 96.3 293.6 99.7C292.8 103.1 297.9 102.8 299.3 101.7" stroke="#263238" stroke-miterlimit="10" stroke-linecap="round" stroke-linejoin="round"/>
<path d="M322.1 90.7C322.1 90.7 320 83.9 324.5 80.6C329.1 77.3 328.8 97.4 328.8 97.4L333.2 99.8C333.2 99.8 339.5 83.2 336.4 71C333.4 58.8 321.1 50.2 304 54.8C281.2 61 286.3 79.6 286.3 79.6C286.3 79.6 287.3 74.3 288.4 74.6C289.5 74.9 293.1 78.4 310.8 72.3C310.8 72.3 312.8 74 312.4 78.3C312 82.6 319.5 86.4 320.7 93.5L322.1 90.7Z" fill="#999999"/>
<path opacity="0.4" d="M322.1 90.7C322.1 90.7 320 83.9 324.5 80.6C329.1 77.3 328.8 97.4 328.8 97.4L333.2 99.8C333.2 99.8 339.5 83.2 336.4 71C333.4 58.8 321.1 50.2 304 54.8C281.2 61 286.3 79.6 286.3 79.6C286.3 79.6 287.3 74.3 288.4 74.6C289.5 74.9 293.1 78.4 310.8 72.3C310.8 72.3 312.8 74 312.4 78.3C312 82.6 319.5 86.4 320.7 93.5L322.1 90.7Z" fill="black"/>
<path d="M322.1 90.7C322.1 90.7 320 83.9 324.5 80.6C329.1 77.3 328.8 97.4 328.8 97.4L333.2 99.8C333.2 99.8 339.5 83.2 336.4 71C333.4 58.8 321.1 50.2 304 54.8C281.2 61 286.3 79.6 286.3 79.6C286.3 79.6 287.3 74.3 288.4 74.6C289.5 74.9 293.1 78.4 310.8 72.3C310.8 72.3 312.8 74 312.4 78.3C312 82.6 319.5 86.4 320.7 93.5L322.1 90.7Z" stroke="#263238" stroke-miterlimit="10" stroke-linecap="round" stroke-linejoin="round"/>
<path d="M292.6 102.8C292.6 102.8 294.6 103.7 297.3 103.3L298.3 104.4L299.2 103.4C299.2 103.4 304.8 104.1 307.5 103.4C310.2 102.7 313.1 104.4 314.5 104.4C314.5 104.4 320.6 97.1 320 93.3C319.4 89.5 319 88.4 319 88.4C319 88.4 320.1 89.4 320.8 89.2C321.6 88.9 321.6 88.4 321.6 88.4C321.6 88.4 327.5 100.4 327.4 110.1C327.4 110.1 320.6 121.3 311.7 122C301.7 122.7 296.4 118.8 296.4 118.8C294.7 113.7 295.5 109 295.5 109C294.2 107.7 293.1 107.2 293.1 107.2C292.5 105.8 292.6 102.8 292.6 102.8Z" fill="#263238"/>
<path d="M288.4 74.7C288.4 74.7 283.3 72.3 284.3 66.5C285.2 60.7 289.6 58.7 292.7 56.9C292.7 56.9 299 51.5 310.8 50.8C325 50 338.8 57.4 335.6 68.4C335.6 68.4 315.6 59.9 310.8 72.4C310.8 72.3 297 80.3 288.4 74.7Z" fill="#263238"/>
<path d="M323.1 84.5C323.1 84.5 327.6 75.9 330.5 78.8C333.5 81.6 332.7 85.8 331.6 89.8C330.6 93.8 330.2 93.1 328.4 94.9C326.5 96.7 324.5 98.6 323.8 96.6C323.1 94.6 323.4 93 323.4 93" fill="#BFBFBF"/>
<path d="M323.1 84.5C323.1 84.5 327.6 75.9 330.5 78.8C333.5 81.6 332.7 85.8 331.6 89.8C330.6 93.8 330.2 93.1 328.4 94.9C326.5 96.7 324.5 98.6 323.8 96.6C323.1 94.6 323.4 93 323.4 93" stroke="#263238" stroke-miterlimit="10" stroke-linecap="round" stroke-linejoin="round"/>
<path d="M309.4 109.4C301.4 109.6 298.8 108.4 298.8 108.4C298.4 108.9 297.9 108.8 297.9 108.8L299.2 111.5C299.2 111.5 300.5 112.3 303.9 112.3C306.9 112.3 309.4 109.4 309.4 109.4Z" fill="white"/>
<path opacity="0.2" d="M302.6 72.5C302.6 72.5 299.4 66 307.9 62.1C316.4 58.1 330.2 59.7 333.6 64.1" stroke="white" stroke-miterlimit="10" stroke-linecap="round" stroke-linejoin="round"/>
<path opacity="0.2" d="M293.8 73.8C293.8 73.8 284.4 73.4 291.4 64.3C298.4 55.2 313.1 52.3 313.1 52.3" stroke="white" stroke-miterlimit="10" stroke-linecap="round" stroke-linejoin="round"/>
<path d="M350.7 122.3C350.7 122.3 348.9 134.5 337.2 141.1C337.2 141.1 330.7 131.5 327.3 131.7C325.6 131.8 323.1 136.9 323.1 136.9" stroke="#263238" stroke-miterlimit="10" stroke-linecap="round" stroke-linejoin="round"/>
<path d="M301.2 128C300 132.6 300.8 141.7 300.8 141.7C300.8 141.7 303.6 132.6 304.7 131.7C306.7 130.1 312.9 138 312.9 138" stroke="#263238" stroke-miterlimit="10" stroke-linecap="round" stroke-linejoin="round"/>
<path d="M317.7 141.1L313 144.2C313 144.2 318.3 150.2 317.7 155.6C317.1 161 319 172.9 319 172.9" stroke="#263238" stroke-miterlimit="10" stroke-linecap="round" stroke-linejoin="round"/>
<path d="M272.5 195.8C277.9 206.5 276.2 216.4 276.2 216.4C276.2 216.4 269.2 226.1 263.8 227.5C250.7 231 242.9 202 227.2 163C226.2 160.5 235.1 147.3 235.1 147.3L261 187.6C261 187.7 268.7 188.3 272.5 195.8Z" fill="#BFBFBF" stroke="#263238" stroke-miterlimit="10" stroke-linecap="round" stroke-linejoin="round"/>
<path d="M234 150.3L227.3 141.3C227.3 141.3 217.3 135.6 216.2 139C214.6 144.1 206.4 145.7 206.4 145.7C207.1 148.3 215.1 160 219.7 162.7C224.2 165.3 224.7 166.1 226.6 166.6C231.4 167.9 232.5 164.5 232.5 164.5" fill="#BFBFBF"/>
<path d="M234 150.3L227.3 141.3C227.3 141.3 217.3 135.6 216.2 139C214.6 144.1 206.4 145.7 206.4 145.7C207.1 148.3 215.1 160 219.7 162.7C224.2 165.3 224.7 166.1 226.6 166.6C231.4 167.9 232.5 164.5 232.5 164.5" stroke="#263238" stroke-miterlimit="10" stroke-linecap="round" stroke-linejoin="round"/>
<path d="M181.1 189.5C181.1 189.5 144.6 155.6 189.9 143.3C235.3 131 223.3 175.9 223.3 175.9L220.3 176.4C220.3 176.4 232.2 136.2 191.4 146.7C150.6 157.2 182.7 187.4 182.7 187.4L181.1 189.5Z" fill="#757575" stroke="#263238" stroke-miterlimit="10" stroke-linecap="round" stroke-linejoin="round"/>
<path d="M229.6 156.4C221.9 152.7 224.6 145.8 217.1 141.5C215.1 140.3 208.6 141 206.6 139.6C203.5 137.4 204.6 136 204.7 135.7C204.8 135.1 207 137 214.3 134.9C217.2 134.1 225.3 136.6 227.8 138.8C233.7 143.9 238.9 150 238.3 154.7C238 157.4 234.9 158.5 234.9 158.5" fill="#BFBFBF"/>
<path d="M229.6 156.4C221.9 152.7 224.6 145.8 217.1 141.5C215.1 140.3 208.6 141 206.6 139.6C203.5 137.4 204.6 136 204.7 135.7C204.8 135.1 207 137 214.3 134.9C217.2 134.1 225.3 136.6 227.8 138.8C233.7 143.9 238.9 150 238.3 154.7C238 157.4 234.9 158.5 234.9 158.5" stroke="#263238" stroke-miterlimit="10" stroke-linecap="round" stroke-linejoin="round"/>
<path d="M207.6 144.8C207.6 144.8 214 143.2 216.1 143.2C218.9 143.2 219.8 143.6 220.5 144.8C221.2 146 220.4 147.5 220.4 147.5C220.4 147.5 222.2 148.3 222.7 149.9C223.2 151.5 222.1 153.2 222.1 153.2C222.1 153.2 224 153.7 225 155C226.4 156.6 225.2 158 225.2 158C225.2 158 228.8 160.5 226.8 162C224.8 163.5 219.3 165.7 216.8 165.5C214.3 165.2 198.6 146.2 207.6 144.8Z" fill="#BFBFBF" stroke="#263238" stroke-miterlimit="10" stroke-linecap="round" stroke-linejoin="round"/>
<path d="M220.4 147.6C220.4 147.6 210.2 150.7 207.4 150.7" stroke="#263238" stroke-miterlimit="10" stroke-linecap="round" stroke-linejoin="round"/>
<path d="M222 153.3C222 153.3 213.3 156.4 211.5 156.8" stroke="#263238" stroke-miterlimit="10" stroke-linecap="round" stroke-linejoin="round"/>
<path d="M225.1 158C225.1 158 218.4 160.8 215.5 161.3" stroke="#263238" stroke-miterlimit="10" stroke-linecap="round" stroke-linejoin="round"/>
<path d="M180.4 184.3C180.4 184.3 191.6 165.1 219.4 168.6L242.2 216.2C242.2 216.2 227.9 243.4 187.3 237L180.4 184.3Z" fill="#757575" stroke="#263238" stroke-miterlimit="10" stroke-linecap="round" stroke-linejoin="round"/>
<path d="M191.2 222.4C191.2 222.4 166.8 204.3 150.2 222.7L157.7 228.3C157.7 228.3 165.4 212.1 191.5 232.1" fill="#757575"/>
<path d="M191.2 222.4C191.2 222.4 166.8 204.3 150.2 222.7L157.7 228.3C157.7 228.3 165.4 212.1 191.5 232.1" stroke="#263238" stroke-miterlimit="10" stroke-linecap="round" stroke-linejoin="round"/>
<path d="M182.7 184.5C182.7 184.5 209.1 187.1 217.2 169.9L182.7 184.5Z" fill="#757575"/>
<path d="M182.7 184.5C182.7 184.5 209.1 187.1 217.2 169.9" stroke="#263238" stroke-miterlimit="10" stroke-linecap="round" stroke-linejoin="round"/>
<path d="M136.2 224.3C136.2 224.3 146.6 217 155.8 222.4C165 227.8 162.8 237.4 162.8 237.4C162.8 237.4 149 238.5 136.2 224.3Z" fill="#757575" stroke="#263238" stroke-miterlimit="10" stroke-linecap="round" stroke-linejoin="round"/>
<path d="M141.3 224.3C141.3 224.3 157.4 228.6 162.8 237.4" stroke="#263238" stroke-miterlimit="10" stroke-linecap="round" stroke-linejoin="round"/>
<path d="M203.6 172.2L201.7 164.4C201.7 164.4 191.3 164.1 187.7 170.1L192.3 176.2" fill="#757575"/>
<path d="M203.6 172.2L201.7 164.4C201.7 164.4 191.3 164.1 187.7 170.1L192.3 176.2" stroke="#263238" stroke-miterlimit="10" stroke-linecap="round" stroke-linejoin="round"/>
<path d="M203 173.9C203 173.9 200.3 175.6 196.3 175.9" stroke="#263238" stroke-miterlimit="10" stroke-linecap="round" stroke-linejoin="round"/>
<path d="M194.3 223.9C194.3 223.9 196.7 227.1 193.7 231.1" stroke="#263238" stroke-miterlimit="10" stroke-linecap="round" stroke-linejoin="round"/>
<path opacity="0.2" d="M381.7 184.7C381.7 184.7 372 218 350.7 234.7C341 242.3 296.4 230 296.4 230L299.3 212.7L313.9 205.8C313.9 205.8 339.7 165.4 353.7 161.3C367.7 157.3 381.7 184.7 381.7 184.7Z" fill="#92E3A9"/>
<path d="M369.1 137.7C358.8 138 331.8 187.6 331.8 187.6C324.5 190.4 328 196.8 328 196.8C328 196.8 345.2 218.6 348.4 220.5C356.4 225.1 359.3 217 359.3 217C359.3 217 393.1 186.3 390.8 161.3C388.5 136.3 380.8 136.9 380.8 136.9" fill="white"/>
<path d="M369.1 137.7C358.8 138 331.8 187.6 331.8 187.6C324.5 190.4 328 196.8 328 196.8C328 196.8 345.2 218.6 348.4 220.5C356.4 225.1 359.3 217 359.3 217C359.3 217 393.1 186.3 390.8 161.3C388.5 136.3 380.8 136.9 380.8 136.9" stroke="#263238" stroke-miterlimit="10" stroke-linecap="round" stroke-linejoin="round"/>
<path d="M329.7 194.9L319.4 206C297.5 203.9 257.6 220.4 246.1 214.4C239.4 210.9 223.3 214.5 220.9 215.7C218.5 216.9 213.4 223.2 215.3 224C217.2 224.8 221.3 221.1 223.6 221.4C225.9 221.7 230.1 221.3 230.1 221.3C230.1 221.3 220 231 217.7 231.4C215.4 231.8 203.9 236.7 208.1 237.6C214 238.8 216.2 238.2 216.2 238.2C216.2 238.2 221.5 242 225.4 242.4C227.4 242.6 238.5 240.6 238.5 240.6L248.6 230.9C248.6 230.9 316.1 234.4 327.9 229.4C343.4 222.9 348.3 217.5 348.3 217.5C348.3 217.5 341.8 198.5 329.7 194.9Z" fill="#BFBFBF" stroke="#263238" stroke-miterlimit="10" stroke-linecap="round" stroke-linejoin="round"/>
<path d="M319.9 276.5C319.7 276.4 314.7 306 321.7 312.2C321.7 312.2 325.8 326.3 325 336C324.2 345.7 329.5 365.4 329.5 365.4L333 387.8" stroke="#263238" stroke-miterlimit="10" stroke-linecap="round" stroke-linejoin="round"/>
<path d="M325 277.4C325 277.4 322.5 292 323.5 297.3C324.5 302.6 322.3 307.9 319.3 308.1" stroke="#263238" stroke-miterlimit="10" stroke-linecap="round" stroke-linejoin="round"/>
<path d="M371.6 272.9C371.6 272.9 376.1 297.2 383.6 299.3" stroke="#263238" stroke-miterlimit="10" stroke-linecap="round" stroke-linejoin="round"/>
<path d="M380.8 269.6C380.8 269.6 384.2 285.1 383.6 306.6C383 328 387.9 371 388.3 376.3C388.7 381.6 388.3 387.9 388.3 387.9" stroke="#263238" stroke-miterlimit="10" stroke-linecap="round" stroke-linejoin="round"/>
<path d="M340.7 304.7C338.8 305.5 315.3 312.5 310.8 318" stroke="#263238" stroke-miterlimit="10" stroke-linecap="round" stroke-linejoin="round"/>
<path d="M325 318.6C325 318.6 341.2 338.3 349.1 340.3" stroke="#263238" stroke-miterlimit="10" stroke-linecap="round" stroke-linejoin="round"/>
<path d="M317.9 320.5C317.9 320.5 292.9 344.9 288.6 342.2" stroke="#263238" stroke-miterlimit="10" stroke-linecap="round" stroke-linejoin="round"/>
<path d="M325.7 349C325.7 349 318.8 376.2 319.3 379.2C319.8 382.2 317 387.9 317 387.9" stroke="#263238" stroke-miterlimit="10" stroke-linecap="round" stroke-linejoin="round"/>
<path d="M319 242.4C319 242.4 320.5 250.2 319 255C317.5 259.8 319.1 267 321.2 267.4" stroke="#263238" stroke-miterlimit="10" stroke-linecap="round" stroke-linejoin="round"/>
<path d="M261 187.7C261 187.7 269 196.3 269 203.1" stroke="#263238" stroke-miterlimit="10" stroke-linecap="round" stroke-linejoin="round"/>
<path d="M159.8 242.4C159.8 242.4 159.1 244.5 158.2 248.2" stroke="#263238" stroke-linecap="round" stroke-linejoin="round"/>
<path d="M156.7 254.1C156.1 256.8 155.5 259.8 154.9 263.1" stroke="#263238" stroke-linecap="round" stroke-linejoin="round" stroke-dasharray="6.11 6.11"/>
<path d="M154.4 266.1C154.1 268 153.8 270 153.5 272" stroke="#263238" stroke-linecap="round" stroke-linejoin="round"/>
<path d="M146.1 237.2C146.1 237.2 144.9 239.1 143.1 242.4" stroke="#263238" stroke-linecap="round" stroke-linejoin="round"/>
<path d="M139.2 250.1C137.6 253.6 135.8 257.7 134.3 262.1" stroke="#263238" stroke-linecap="round" stroke-linejoin="round" stroke-dasharray="8.66 8.66"/>
<path d="M133 266.2C132.4 268.1 131.9 270 131.5 272" stroke="#263238" stroke-linecap="round" stroke-linejoin="round"/>
<path d="M136.2 228.9C135.6 229 133.6 230 131 231.8" stroke="#263238" stroke-linecap="round" stroke-linejoin="round"/>
<path d="M125.6 236C123.3 238 120.8 240.4 118.4 243.2" stroke="#263238" stroke-linecap="round" stroke-linejoin="round" stroke-dasharray="6.82 6.82"/>
<path d="M116.3 245.9C115.1 247.5 114 249.1 113 250.9" stroke="#263238" stroke-linecap="round" stroke-linejoin="round"/>
<path d="M331.7 187.6C339.2 188.7 350.2 202.5 352.2 207.7" stroke="#263238" stroke-miterlimit="10" stroke-linecap="round" stroke-linejoin="round"/>
<path d="M388.3 169.9C388.3 169.9 370.2 180.9 352.2 182" stroke="#263238" stroke-miterlimit="10" stroke-linecap="round" stroke-linejoin="round"/>
<path d="M260 182C260 182 269.3 180.1 274 187.7C278.8 195.3 280.3 203.1 280.3 203.1" stroke="#263238" stroke-miterlimit="10" stroke-linecap="round" stroke-linejoin="round"/>
<path d="M273 165.5C273 165.5 277.5 175.3 282.7 179.4" stroke="#263238" stroke-miterlimit="10" stroke-linecap="round" stroke-linejoin="round"/>
<path d="M319 194C319 194 319.8 201.4 319.4 206" stroke="#263238" stroke-miterlimit="10" stroke-linecap="round" stroke-linejoin="round"/>
<path d="M304.5 240C304.5 240 324.3 262.2 354.8 256.2" stroke="#263238" stroke-miterlimit="10" stroke-linecap="round" stroke-linejoin="round"/>
<path d="M319.5 148.1C320.107 148.1 320.6 147.563 320.6 146.9C320.6 146.237 320.107 145.7 319.5 145.7C318.892 145.7 318.4 146.237 318.4 146.9C318.4 147.563 318.892 148.1 319.5 148.1Z" fill="#263238"/>
<path d="M320.9 177.7C321.507 177.7 322 177.163 322 176.5C322 175.837 321.507 175.3 320.9 175.3C320.292 175.3 319.8 175.837 319.8 176.5C319.8 177.163 320.292 177.7 320.9 177.7Z" fill="#263238"/>
<path d="M9 387.9H437" stroke="#263238" stroke-miterlimit="10" stroke-linecap="round" stroke-linejoin="round"/>
<path d="M96.5 330.5C96.5 330.5 112.6 324.8 102.1 292.9C91.6 261 105 261.7 111 245.6C117 229.5 108.1 218.5 108.1 218.5" stroke="#263238" stroke-width="3" stroke-miterlimit="10" stroke-linecap="round" stroke-linejoin="round"/>
<path d="M104.5 322.6H101.5H57.5C57.5 322.6 63.8 370.4 65.7 384.2C66 386.7 68 388 70.4 388C76.1 388 94.3 388 101.5 388C103.4 388 104.5 388 104.5 388C111.7 388 129.9 388 135.6 388C138 388 140 386.8 140.3 384.2C142.1 370.4 148.5 322.6 148.5 322.6H104.5Z" fill="#263238"/>
<path d="M152.5 324.3C152.5 325.5 151.5 326.5 150.3 326.5H55.8001C54.6001 326.5 53.6001 325.5 53.6001 324.3V320.8C53.6001 319.6 54.6001 318.6 55.8001 318.6H150.3C151.5 318.6 152.5 319.6 152.5 320.8V324.3Z" fill="#263238"/>
<path d="M62.5 326.6H110.2" stroke="white" stroke-miterlimit="10" stroke-linecap="round" stroke-linejoin="round"/>
<path d="M116.2 326.6H119.8" stroke="white" stroke-miterlimit="10" stroke-linecap="round" stroke-linejoin="round"/>
<path d="M141.8 326.6H135.2" stroke="white" stroke-miterlimit="10" stroke-linecap="round" stroke-linejoin="round"/>
<path d="M66.2002 342.2H84.8002" stroke="white" stroke-miterlimit="10" stroke-linecap="round" stroke-linejoin="round"/>
<path d="M95.5 342.2H100.5" stroke="white" stroke-miterlimit="10" stroke-linecap="round" stroke-linejoin="round"/>
<path d="M140.5 342.2H122.5" stroke="white" stroke-miterlimit="10" stroke-linecap="round" stroke-linejoin="round"/>
<path d="M138.5 355.2H135.2" stroke="white" stroke-miterlimit="10" stroke-linecap="round" stroke-linejoin="round"/>
<path d="M84.8003 355.2H77.8003" stroke="white" stroke-miterlimit="10" stroke-linecap="round" stroke-linejoin="round"/>
<path d="M118 367.9H129.5" stroke="white" stroke-miterlimit="10" stroke-linecap="round" stroke-linejoin="round"/>
<path d="M91.2002 367.9H73.2002" stroke="white" stroke-miterlimit="10" stroke-linecap="round" stroke-linejoin="round"/>
<path d="M69.5 379.2H75.5" stroke="white" stroke-miterlimit="10" stroke-linecap="round" stroke-linejoin="round"/>
<path d="M84.8003 379.2H119.8" stroke="white" stroke-miterlimit="10" stroke-linecap="round" stroke-linejoin="round"/>
<path d="M136.8 379.2H131.5" stroke="white" stroke-miterlimit="10" stroke-linecap="round" stroke-linejoin="round"/>
<path d="M103 370.4C112.5 370.4 120.2 362.699 120.2 353.2C120.2 343.701 112.5 336 103 336C93.501 336 85.8003 343.701 85.8003 353.2C85.8003 362.699 93.501 370.4 103 370.4Z" fill="#92E3A9" stroke="#263238" stroke-miterlimit="10" stroke-linecap="round" stroke-linejoin="round"/>
<path d="M101.7 345.3V344.2H104.4V345.3C106.7 345.7 107.9 347 107.9 349.1V349.6H104.8V349C104.8 347.9 104.2 347.5 103.2 347.5C102.2 347.5 101.6 347.9 101.6 349C101.6 350.1 102.2 350.9 104.4 352.2C107.1 353.8 108 355 108 356.8C108 358.9 106.8 360.2 104.5 360.6V361.7H101.8V360.6C99.5003 360.2 98.3003 358.9 98.3003 356.8V355.7H101.4V356.9C101.4 358 102.1 358.4 103.1 358.4C104.1 358.4 104.8 358 104.8 356.9C104.8 355.8 104.2 355 102 353.7C99.3003 352.1 98.4003 350.9 98.4003 349.1C98.2003 347 99.4003 345.7 101.7 345.3Z" fill="white" stroke="#263238" stroke-miterlimit="10" stroke-linecap="round" stroke-linejoin="round"/>
<path d="M103 367.5C110.898 367.5 117.3 361.098 117.3 353.2C117.3 345.302 110.898 338.9 103 338.9C95.1025 338.9 88.7002 345.302 88.7002 353.2C88.7002 361.098 95.1025 367.5 103 367.5Z" stroke="#263238" stroke-miterlimit="10" stroke-linecap="round" stroke-linejoin="round"/>
<path d="M100.9 288.7C100.9 288.7 104.3 270.9 118.7 269.5C133.1 268.1 134.7 256.9 134.7 256.9" stroke="#263238" stroke-width="3" stroke-miterlimit="10" stroke-linecap="round" stroke-linejoin="round"/>
<path d="M102.3 257.9C102.3 257.9 98.8001 256.2 85.9001 248.3C73.0001 240.4 73.5001 227.9 73.5001 227.9" stroke="#263238" stroke-width="3" stroke-miterlimit="10" stroke-linecap="round" stroke-linejoin="round"/>
<path d="M105.1 304.7C105.1 304.7 79.8 303.7 76 282.9" stroke="#263238" stroke-width="3" stroke-miterlimit="10" stroke-linecap="round" stroke-linejoin="round"/>
<path d="M109.8 219.6C116.096 219.6 121.2 214.496 121.2 208.2C121.2 201.904 116.096 196.8 109.8 196.8C103.504 196.8 98.3999 201.904 98.3999 208.2C98.3999 214.496 103.504 219.6 109.8 219.6Z" fill="white"/>
<path d="M109.8 219.6C116.096 219.6 121.2 214.496 121.2 208.2C121.2 201.904 116.096 196.8 109.8 196.8C103.504 196.8 98.3999 201.904 98.3999 208.2C98.3999 214.496 103.504 219.6 109.8 219.6Z" stroke="#263238" stroke-miterlimit="10" stroke-linecap="round" stroke-linejoin="round"/>
<path d="M118.914 209.261C119.53 204.218 115.941 199.629 110.898 199.013C105.855 198.397 101.266 201.986 100.65 207.029C100.034 212.072 103.623 216.661 108.666 217.277C113.71 217.893 118.298 214.304 118.914 209.261Z" stroke="#263238" stroke-miterlimit="10" stroke-linecap="round" stroke-linejoin="round"/>
<path d="M108.4 203.6C108.7 203.2 109.2 203 109.8 202.9L109.9 202.1L111.2 202.3L111.1 203.1C111.6 203.3 112 203.6 112.3 204.1C112.5 204.6 112.6 205.1 112.5 205.8V206.1L111 205.9L111.1 205.5C111.1 205.2 111.1 204.9 111 204.7C110.9 204.5 110.7 204.4 110.4 204.4C110.1 204.4 109.9 204.4 109.8 204.6C109.6 204.7 109.5 205 109.5 205.3C109.5 205.6 109.5 205.9 109.6 206.1C109.7 206.4 109.8 206.6 110 206.8C110.2 207 110.4 207.3 110.7 207.6C111 207.9 111.3 208.3 111.5 208.5C111.7 208.8 111.9 209.1 112 209.5C112.1 209.9 112.2 210.3 112.1 210.8C112 211.5 111.8 212 111.4 212.4C111.1 212.8 110.6 213 110 213.1L109.9 213.8L108.6 213.6L108.7 212.9C108.1 212.7 107.7 212.4 107.5 211.9C107.3 211.4 107.2 210.9 107.3 210.2L107.4 209.5L108.9 209.7L108.8 210.5C108.7 211.2 109 211.5 109.5 211.6C110.1 211.7 110.4 211.4 110.5 210.7C110.5 210.4 110.5 210.1 110.4 209.9C110.3 209.6 110.2 209.4 110 209.2C109.8 209 109.6 208.7 109.3 208.4C109 208.1 108.7 207.7 108.5 207.5C108.3 207.2 108.1 206.9 108 206.5C107.9 206.1 107.8 205.7 107.9 205.2C107.8 204.5 108 204 108.4 203.6Z" fill="#263238"/>
<path d="M73.7999 231.6C80.096 231.6 85.1999 226.496 85.1999 220.2C85.1999 213.904 80.096 208.8 73.7999 208.8C67.5039 208.8 62.3999 213.904 62.3999 220.2C62.3999 226.496 67.5039 231.6 73.7999 231.6Z" fill="white"/>
<path d="M73.7999 231.6C80.096 231.6 85.1999 226.496 85.1999 220.2C85.1999 213.904 80.096 208.8 73.7999 208.8C67.5039 208.8 62.3999 213.904 62.3999 220.2C62.3999 226.496 67.5039 231.6 73.7999 231.6Z" stroke="#263238" stroke-miterlimit="10" stroke-linecap="round" stroke-linejoin="round"/>
<path d="M75.0369 229.339C80.0717 228.654 83.5975 224.017 82.9121 218.982C82.2267 213.947 77.5895 210.421 72.5548 211.107C67.52 211.792 63.9941 216.429 64.6796 221.464C65.365 226.499 70.0021 230.025 75.0369 229.339Z" stroke="#263238" stroke-miterlimit="10" stroke-linecap="round" stroke-linejoin="round"/>
<path d="M71.4001 216.1C71.6001 215.6 72.0001 215.3 72.5001 215.1L72.4001 214.3L73.7001 214.1L73.8001 214.9C74.4001 214.9 74.8001 215.2 75.2001 215.5C75.5001 215.9 75.8001 216.4 75.9001 217.1V217.4L74.4001 217.6L74.3001 217.2C74.3001 216.9 74.1001 216.6 74.0001 216.5C73.8001 216.4 73.6001 216.3 73.4001 216.3C73.1001 216.3 72.9001 216.4 72.8001 216.6C72.7001 216.8 72.7001 217 72.7001 217.4C72.7001 217.7 72.8001 218 73.0001 218.2C73.2001 218.4 73.3001 218.6 73.5001 218.8C73.7001 219 74.0001 219.1 74.3001 219.4C74.7001 219.6 75.1001 219.9 75.3001 220.1C75.6001 220.3 75.8001 220.6 76.0001 220.9C76.2001 221.2 76.4001 221.7 76.4001 222.1C76.5001 222.8 76.4001 223.4 76.2001 223.8C76.0001 224.3 75.6001 224.6 75.0001 224.8L75.1001 225.5L73.8001 225.7L73.7001 225C73.1001 225 72.6001 224.7 72.3001 224.4C72.0001 224 71.7001 223.5 71.6001 222.8L71.5001 222.1L73.0001 221.9L73.1001 222.7C73.2001 223.4 73.5001 223.7 74.1001 223.6C74.7001 223.5 74.9001 223.2 74.8001 222.5C74.8001 222.2 74.7001 221.9 74.5001 221.7C74.3001 221.5 74.2001 221.3 74.0001 221.1C73.8001 220.9 73.5001 220.8 73.2001 220.5C72.8001 220.3 72.4001 220 72.2001 219.8C71.9001 219.6 71.7001 219.3 71.5001 219C71.3001 218.7 71.1001 218.2 71.1001 217.8C71.1001 217.1 71.1001 216.5 71.4001 216.1Z" fill="#263238"/>
<path d="M73.1002 285.6C79.3962 285.6 84.5002 280.496 84.5002 274.2C84.5002 267.904 79.3962 262.8 73.1002 262.8C66.8042 262.8 61.7002 267.904 61.7002 274.2C61.7002 280.496 66.8042 285.6 73.1002 285.6Z" fill="white"/>
<path d="M73.1002 285.6C79.3962 285.6 84.5002 280.496 84.5002 274.2C84.5002 267.904 79.3962 262.8 73.1002 262.8C66.8042 262.8 61.7002 267.904 61.7002 274.2C61.7002 280.496 66.8042 285.6 73.1002 285.6Z" stroke="#263238" stroke-miterlimit="10" stroke-linecap="round" stroke-linejoin="round"/>
<path d="M73.8322 283.361C78.8969 282.957 82.675 278.524 82.2708 273.459C81.8666 268.394 77.4331 264.616 72.3683 265.02C67.3036 265.425 63.5255 269.858 63.9297 274.923C64.3339 279.988 68.7674 283.766 73.8322 283.361Z" stroke="#263238" stroke-miterlimit="10" stroke-linecap="round" stroke-linejoin="round"/>
<path d="M70.8003 270C71.1003 269.6 71.5003 269.2 72.0003 269.1L71.9003 268.3L73.2003 268.2L73.3003 269C73.9003 269.1 74.3003 269.3 74.7003 269.7C75.0003 270.1 75.2003 270.7 75.3003 271.4V271.7L73.8003 271.8V271.4C73.8003 271 73.7003 270.8 73.5003 270.6C73.3003 270.4 73.1003 270.4 72.9003 270.4C72.6003 270.4 72.4003 270.5 72.3003 270.7C72.2003 270.9 72.1003 271.1 72.2003 271.5C72.2003 271.8 72.3003 272.1 72.4003 272.3C72.5003 272.5 72.7003 272.7 72.9003 272.9C73.1003 273.1 73.4003 273.3 73.7003 273.5C74.1003 273.8 74.4003 274 74.7003 274.3C75.0003 274.5 75.2003 274.8 75.4003 275.2C75.6003 275.6 75.7003 276 75.8003 276.5C75.9003 277.2 75.8003 277.8 75.5003 278.2C75.2003 278.7 74.8003 279 74.3003 279.1L74.4003 279.8L73.1003 279.9L73.0003 279.2C72.4003 279.1 72.0003 278.9 71.6003 278.5C71.3003 278.1 71.1003 277.5 71.0003 276.8L70.9003 276.1L72.4003 276L72.5003 276.8C72.6003 277.5 72.9003 277.8 73.4003 277.7C74.0003 277.7 74.2003 277.3 74.2003 276.6C74.2003 276.3 74.1003 276 74.0003 275.8C73.9003 275.6 73.7003 275.4 73.5003 275.2C73.3003 275 73.0003 274.8 72.7003 274.6C72.3003 274.3 72.0003 274.1 71.7003 273.8C71.4003 273.6 71.2003 273.3 71.0003 272.9C70.8003 272.5 70.7003 272.1 70.6003 271.6C70.5003 271 70.6003 270.4 70.8003 270Z" fill="#263238"/>
<path d="M140.7 260.2C146.996 260.2 152.1 255.096 152.1 248.8C152.1 242.504 146.996 237.4 140.7 237.4C134.404 237.4 129.3 242.504 129.3 248.8C129.3 255.096 134.404 260.2 140.7 260.2Z" fill="white"/>
<path d="M140.7 260.2C146.996 260.2 152.1 255.096 152.1 248.8C152.1 242.504 146.996 237.4 140.7 237.4C134.404 237.4 129.3 242.504 129.3 248.8C129.3 255.096 134.404 260.2 140.7 260.2Z" stroke="#263238" stroke-miterlimit="10" stroke-linecap="round" stroke-linejoin="round"/>
<path d="M149.02 252.713C151.156 248.103 149.15 242.634 144.539 240.499C139.929 238.363 134.46 240.369 132.324 244.98C130.189 249.59 132.195 255.059 136.806 257.195C141.416 259.33 146.885 257.324 149.02 252.713Z" stroke="#263238" stroke-miterlimit="10" stroke-linecap="round" stroke-linejoin="round"/>
<path d="M140.8 244.1C141.2 243.8 141.7 243.8 142.3 243.9L142.6 243.2L143.8 243.8L143.5 244.5C144 244.8 144.2 245.3 144.3 245.8C144.4 246.3 144.3 246.9 144 247.5L143.9 247.8L142.5 247.2L142.7 246.8C142.8 246.5 142.9 246.2 142.8 246C142.7 245.8 142.6 245.6 142.4 245.5C142.2 245.4 141.9 245.4 141.8 245.5C141.6 245.6 141.4 245.8 141.3 246.1C141.2 246.4 141.1 246.6 141.1 246.9C141.1 247.2 141.2 247.4 141.2 247.7C141.3 247.9 141.4 248.2 141.6 248.6C141.8 249 142 249.4 142.1 249.7C142.2 250 142.3 250.4 142.3 250.8C142.3 251.2 142.2 251.6 142 252.1C141.7 252.7 141.3 253.2 140.9 253.5C140.4 253.8 139.9 253.8 139.4 253.7L139.1 254.4L137.9 253.8L138.2 253.1C137.7 252.8 137.4 252.3 137.4 251.8C137.3 251.3 137.4 250.7 137.7 250.1L138 249.5L139.4 250.1L139.1 250.8C138.8 251.4 138.9 251.8 139.4 252.1C139.9 252.3 140.3 252.1 140.6 251.5C140.7 251.2 140.8 251 140.8 250.7C140.8 250.4 140.7 250.2 140.7 249.9C140.6 249.7 140.5 249.4 140.3 249C140.1 248.6 139.9 248.2 139.8 247.9C139.7 247.6 139.6 247.2 139.6 246.8C139.6 246.4 139.7 246 139.9 245.5C140 244.8 140.3 244.3 140.8 244.1Z" fill="#263238"/>
<path d="M134.2 258.8C134.2 259.5 144.9 251.8 155.2 256.7C155.2 256.7 144.4 266.5 133.9 260.4C123.4 254.3 124.9 239.3 124.9 239.3C124.9 239.3 135 246.4 134.2 258.8Z" fill="#92E3A9" stroke="#263238" stroke-miterlimit="10" stroke-linecap="round" stroke-linejoin="round"/>
<path d="M109.8 219.9C110.1 220.5 114.9 208.2 126.3 206.7C126.3 206.7 122.5 220.8 110.4 221.4C98.2999 221.9 91.3999 208.5 91.3999 208.5C91.3999 208.5 103.8 209 109.8 219.9Z" fill="#92E3A9" stroke="#263238" stroke-miterlimit="10" stroke-linecap="round" stroke-linejoin="round"/>
<path d="M75.1003 232.8C75.5003 233.4 78.3003 220.5 89.4003 217.2C89.4003 217.2 87.9003 231.8 76.1003 234.2C64.2003 236.6 55.3003 224.5 55.3003 224.5C55.3003 224.5 67.5003 223 75.1003 232.8Z" fill="#92E3A9" stroke="#263238" stroke-miterlimit="10" stroke-linecap="round" stroke-linejoin="round"/>
<path d="M77.4 287.2C77.9 287.7 78.5 274.5 88.8 269.4C88.8 269.4 89.8 284 78.6 288.4C67.3 292.8 56.5 282.4 56.5 282.4C56.5 282.4 68.2 278.9 77.4 287.2Z" fill="#92E3A9" stroke="#263238" stroke-miterlimit="10" stroke-linecap="round" stroke-linejoin="round"/>
<path d="M224.5 322.6H221.5H177.5C177.5 322.6 183.8 370.4 185.7 384.2C186 386.7 188 388 190.4 388C196.1 388 214.3 388 221.5 388C223.4 388 224.5 388 224.5 388C231.7 388 249.9 388 255.6 388C258 388 260 386.8 260.3 384.2C262.1 370.4 268.5 322.6 268.5 322.6H224.5Z" fill="#263238"/>
<path d="M272.5 324.3C272.5 325.5 271.5 326.5 270.3 326.5H175.8C174.6 326.5 173.6 325.5 173.6 324.3V320.8C173.6 319.6 174.6 318.6 175.8 318.6H270.3C271.5 318.6 272.5 319.6 272.5 320.8V324.3Z" fill="#263238"/>
<path d="M182.5 326.6H230.2" stroke="white" stroke-miterlimit="10" stroke-linecap="round" stroke-linejoin="round"/>
<path d="M236.2 326.6H239.8" stroke="white" stroke-miterlimit="10" stroke-linecap="round" stroke-linejoin="round"/>
<path d="M261.8 326.6H255.2" stroke="white" stroke-miterlimit="10" stroke-linecap="round" stroke-linejoin="round"/>
<path d="M186.2 342.2H204.8" stroke="white" stroke-miterlimit="10" stroke-linecap="round" stroke-linejoin="round"/>
<path d="M215.5 342.2H220.5" stroke="white" stroke-miterlimit="10" stroke-linecap="round" stroke-linejoin="round"/>
<path d="M260.5 342.2H242.5" stroke="white" stroke-miterlimit="10" stroke-linecap="round" stroke-linejoin="round"/>
<path d="M258.5 355.2H255.2" stroke="white" stroke-miterlimit="10" stroke-linecap="round" stroke-linejoin="round"/>
<path d="M204.8 355.2H197.8" stroke="white" stroke-miterlimit="10" stroke-linecap="round" stroke-linejoin="round"/>
<path d="M238 367.9H249.5" stroke="white" stroke-miterlimit="10" stroke-linecap="round" stroke-linejoin="round"/>
<path d="M211.2 367.9H193.2" stroke="white" stroke-miterlimit="10" stroke-linecap="round" stroke-linejoin="round"/>
<path d="M189.5 379.2H195.5" stroke="white" stroke-miterlimit="10" stroke-linecap="round" stroke-linejoin="round"/>
<path d="M204.8 379.2H239.8" stroke="white" stroke-miterlimit="10" stroke-linecap="round" stroke-linejoin="round"/>
<path d="M256.8 379.2H251.5" stroke="white" stroke-miterlimit="10" stroke-linecap="round" stroke-linejoin="round"/>
<path d="M223 370.4C232.5 370.4 240.2 362.699 240.2 353.2C240.2 343.701 232.5 336 223 336C213.501 336 205.8 343.701 205.8 353.2C205.8 362.699 213.501 370.4 223 370.4Z" fill="#92E3A9" stroke="#263238" stroke-miterlimit="10" stroke-linecap="round" stroke-linejoin="round"/>
<path d="M223 367.5C230.898 367.5 237.3 361.098 237.3 353.2C237.3 345.302 230.898 338.9 223 338.9C215.103 338.9 208.7 345.302 208.7 353.2C208.7 361.098 215.103 367.5 223 367.5Z" stroke="#263238" stroke-miterlimit="10" stroke-linecap="round" stroke-linejoin="round"/>
<path d="M223 345.2L218.8 349.3V346.5H217.5V350.7L215.2 352.9H217.2V359.8H228.8V352.9H230.8L223 345.2Z" fill="white" stroke="#263238" stroke-miterlimit="10" stroke-linecap="round" stroke-linejoin="round"/>
<path d="M223.9 327.5C223.9 327.5 229.9 316 215.5 306C201.1 296 198 285.6 200.3 277.8" stroke="#263238" stroke-width="3" stroke-miterlimit="10" stroke-linecap="round" stroke-linejoin="round"/>
<path d="M221.5 311.6C221.5 311.6 219.8 304.1 233 298.8C246.2 293.5 248.1 277.8 248.1 277.8" stroke="#263238" stroke-width="3" stroke-miterlimit="10" stroke-linecap="round" stroke-linejoin="round"/>
<path d="M207.6 265.3C209.7 265.3 209.3 278.5 199.6 281C199.6 281 194.9 279.5 194.1 273.1C193.3 266.7 197.8 263.9 197.8 263.9C197.8 263.9 199 267.8 200.3 269.9C200.3 269.9 203.6 265.3 207.6 265.3Z" fill="#92E3A9" stroke="#263238" stroke-miterlimit="10" stroke-linecap="round" stroke-linejoin="round"/>
<path d="M200.3 269.9C200.3 269.9 197.6 272.1 199.6 276.2L200.3 269.9Z" fill="#92E3A9"/>
<path d="M200.3 269.9C200.3 269.9 197.6 272.1 199.6 276.2" stroke="#263238" stroke-miterlimit="10" stroke-linecap="round" stroke-linejoin="round"/>
<path d="M247.4 281C247.4 281 240.4 274.6 242.5 269.9C244.6 265.2 249.1 263 249.1 263C249.1 263 250.6 265.9 251.5 267.3L255.1 265.2C255.1 265.3 262.4 279.5 247.4 281Z" fill="#92E3A9" stroke="#263238" stroke-miterlimit="10" stroke-linecap="round" stroke-linejoin="round"/>
<path d="M251.5 267.4C251.5 267.4 255.9 274.4 250.4 277.9L251.5 267.4Z" fill="#92E3A9"/>
<path d="M251.5 267.4C251.5 267.4 255.9 274.4 250.4 277.9" stroke="#263238" stroke-miterlimit="10" stroke-linecap="round" stroke-linejoin="round"/>
<path d="M226.2 302.6C226.2 302.6 219.4 285.6 225 266.5" stroke="#263238" stroke-width="3" stroke-miterlimit="10" stroke-linecap="round" stroke-linejoin="round"/>
<path d="M225.3 266.6C225.3 266.6 234.3 263.7 234.3 258.6C234.3 253.5 231.1 249.6 231.1 249.6C231.1 249.6 228.5 251.6 227.2 252.5L224.8 249.1C224.8 249.1 212.3 259 225.3 266.6Z" fill="#92E3A9" stroke="#263238" stroke-miterlimit="10" stroke-linecap="round" stroke-linejoin="round"/>
<path d="M227.2 252.5C227.2 252.5 220.3 257.1 223.9 262.5L227.2 252.5Z" fill="#92E3A9"/>
<path d="M227.2 252.5C227.2 252.5 220.3 257.1 223.9 262.5" stroke="#263238" stroke-miterlimit="10" stroke-linecap="round" stroke-linejoin="round"/>
<path d="M344.5 322.6H341.5H297.5C297.5 322.6 303.8 370.4 305.7 384.2C306 386.7 308 388 310.4 388C316.1 388 334.3 388 341.5 388C343.4 388 344.5 388 344.5 388C351.7 388 369.9 388 375.6 388C378 388 380 386.8 380.3 384.2C382.1 370.4 388.5 322.6 388.5 322.6H344.5Z" fill="#263238"/>
<path d="M392.5 324.3C392.5 325.5 391.5 326.5 390.3 326.5H295.8C294.6 326.5 293.6 325.5 293.6 324.3V320.8C293.6 319.6 294.6 318.6 295.8 318.6H390.3C391.5 318.6 392.5 319.6 392.5 320.8V324.3Z" fill="#263238"/>
<path d="M302.5 326.6H350.2" stroke="white" stroke-miterlimit="10" stroke-linecap="round" stroke-linejoin="round"/>
<path d="M356.2 326.6H359.8" stroke="white" stroke-miterlimit="10" stroke-linecap="round" stroke-linejoin="round"/>
<path d="M381.8 326.6H375.2" stroke="white" stroke-miterlimit="10" stroke-linecap="round" stroke-linejoin="round"/>
<path d="M306.2 342.2H324.8" stroke="white" stroke-miterlimit="10" stroke-linecap="round" stroke-linejoin="round"/>
<path d="M335.5 342.2H340.5" stroke="white" stroke-miterlimit="10" stroke-linecap="round" stroke-linejoin="round"/>
<path d="M380.5 342.2H362.5" stroke="white" stroke-miterlimit="10" stroke-linecap="round" stroke-linejoin="round"/>
<path d="M378.5 355.2H375.2" stroke="white" stroke-miterlimit="10" stroke-linecap="round" stroke-linejoin="round"/>
<path d="M324.8 355.2H317.8" stroke="white" stroke-miterlimit="10" stroke-linecap="round" stroke-linejoin="round"/>
<path d="M358 367.9H369.5" stroke="white" stroke-miterlimit="10" stroke-linecap="round" stroke-linejoin="round"/>
<path d="M331.2 367.9H313.2" stroke="white" stroke-miterlimit="10" stroke-linecap="round" stroke-linejoin="round"/>
<path d="M309.5 379.2H315.5" stroke="white" stroke-miterlimit="10" stroke-linecap="round" stroke-linejoin="round"/>
<path d="M324.8 379.2H359.8" stroke="white" stroke-miterlimit="10" stroke-linecap="round" stroke-linejoin="round"/>
<path d="M376.8 379.2H371.5" stroke="white" stroke-miterlimit="10" stroke-linecap="round" stroke-linejoin="round"/>
<path d="M343 370.4C352.5 370.4 360.2 362.699 360.2 353.2C360.2 343.701 352.5 336 343 336C333.501 336 325.8 343.701 325.8 353.2C325.8 362.699 333.501 370.4 343 370.4Z" fill="#92E3A9" stroke="#263238" stroke-miterlimit="10" stroke-linecap="round" stroke-linejoin="round"/>
<path d="M349.6 351.3V357.3C349.6 357.3 348.3 359.4 343 359.4C337.7 359.4 336.4 357.3 336.4 357.3V351.3" fill="white"/>
<path d="M349.6 351.3V357.3C349.6 357.3 348.3 359.4 343 359.4C337.7 359.4 336.4 357.3 336.4 357.3V351.3" stroke="#263238" stroke-miterlimit="10" stroke-linecap="round" stroke-linejoin="round"/>
<path d="M343 347L352.1 350.4L343 353.8L333.9 350.4L343 347Z" fill="white" stroke="#263238" stroke-miterlimit="10" stroke-linecap="round" stroke-linejoin="round"/>
<path d="M343 350.4L346.8 352.4V361.4" stroke="#263238" stroke-miterlimit="10" stroke-linecap="round" stroke-linejoin="round"/>
<path d="M343 367.5C350.898 367.5 357.3 361.098 357.3 353.2C357.3 345.302 350.898 338.9 343 338.9C335.103 338.9 328.7 345.302 328.7 353.2C328.7 361.098 335.103 367.5 343 367.5Z" stroke="#263238" stroke-miterlimit="10" stroke-linecap="round" stroke-linejoin="round"/>
<path d="M343 331.3C343 331.3 338.4 319.6 343 304.6" stroke="#263238" stroke-width="3" stroke-miterlimit="10" stroke-linecap="round" stroke-linejoin="round"/>
<path d="M343 292C343 292 357.3 301.7 341 311.3C341 311.3 324.8 301.7 343 292Z" fill="#92E3A9" stroke="#263238" stroke-miterlimit="10" stroke-linecap="round" stroke-linejoin="round"/>
<path d="M343 292C343 292 345.4 295.7 343 299C340.6 302.3 341.6 306.6 341.6 306.6" stroke="#263238" stroke-miterlimit="10" stroke-linecap="round" stroke-linejoin="round"/>
</svg>
