<svg width="18" height="18" viewBox="0 0 18 18" fill="none" xmlns="http://www.w3.org/2000/svg">
<g clip-path="url(#clip0)">
<path d="M0.692307 17.2475L5.72504 16.0072L14.9995 6.73269L11.2071 2.94023L1.93292 12.2147L0.692307 17.2475Z" stroke="white" stroke-width="1.5" stroke-miterlimit="10" stroke-linecap="round" stroke-linejoin="round"/>
<path d="M0.73246 17.2475H17.3077M15.0708 1.19008L16.7497 2.86893C16.8885 3.0077 16.9986 3.17245 17.0737 3.35378C17.1489 3.53511 17.1875 3.72946 17.1875 3.92574C17.1875 4.12201 17.1489 4.31636 17.0737 4.49769C16.9986 4.67902 16.8885 4.84378 16.7497 4.98254L14.9995 6.7327L11.2071 2.94024L12.9576 1.19008C13.2378 0.909855 13.6179 0.752426 14.0142 0.752426C14.4105 0.752426 14.7906 0.909855 15.0708 1.19008V1.19008ZM1.93292 12.2147L5.72504 16.0072L1.93292 12.2147Z" stroke="white" stroke-width="1.5" stroke-miterlimit="10" stroke-linecap="round" stroke-linejoin="round"/>
</g>
<defs>
<clipPath id="clip0">
<rect width="18" height="18" fill="white"/>
</clipPath>
</defs>
</svg>
