<svg width="32" height="32" viewBox="0 0 32 32" fill="none" xmlns="http://www.w3.org/2000/svg">
<g clip-path="url(#clip0)">
<path d="M22.4967 11.085C22.3578 10.7254 22.1452 10.3989 21.8725 10.1264C21.5998 9.85403 21.2731 9.64175 20.9133 9.50329C20.418 9.31984 19.8948 9.22287 19.3667 9.21663C18.4883 9.17663 18.225 9.16663 16 9.16663C13.775 9.16663 13.5117 9.17663 12.6333 9.21663C12.1046 9.22268 11.5808 9.31965 11.085 9.50329C10.7254 9.64213 10.3989 9.85475 10.1265 10.1275C9.85406 10.4002 9.64178 10.7269 9.50332 11.0866C9.31987 11.582 9.2229 12.1051 9.21666 12.6333C9.17666 13.5116 9.16666 13.775 9.16666 16C9.16666 18.225 9.17666 18.4883 9.21666 19.3666C9.22271 19.8954 9.31968 20.4191 9.50332 20.915C9.64216 21.2745 9.85478 21.6011 10.1275 21.8735C10.4002 22.1459 10.7269 22.3582 11.0867 22.4966C11.582 22.6801 12.1052 22.7771 12.6333 22.7833C13.5117 22.8233 13.775 22.8333 16 22.8333C18.225 22.8333 18.4883 22.8233 19.3667 22.7833C19.8954 22.7772 20.4191 22.6803 20.915 22.4966C21.2746 22.3578 21.6011 22.1452 21.8735 21.8725C22.1459 21.5998 22.3582 21.273 22.4967 20.9133C22.6801 20.418 22.7771 19.8948 22.7833 19.3666C22.8233 18.4883 22.8333 18.225 22.8333 16C22.8333 13.775 22.8233 13.5116 22.7833 12.6333C22.7773 12.1046 22.6803 11.5808 22.4967 11.085ZM16 20.28C15.1535 20.28 14.326 20.0289 13.6221 19.5586C12.9183 19.0884 12.3697 18.4199 12.0458 17.6378C11.7218 16.8558 11.6371 15.9952 11.8022 15.165C11.9674 14.3347 12.375 13.5721 12.9736 12.9735C13.5721 12.375 14.3348 11.9673 15.165 11.8022C15.9952 11.6371 16.8558 11.7218 17.6379 12.0458C18.4199 12.3697 19.0884 12.9183 19.5587 13.6221C20.029 14.326 20.28 15.1535 20.28 16C20.28 17.1351 19.8291 18.2237 19.0264 19.0264C18.2238 19.829 17.1351 20.28 16 20.28ZM20.4483 12.5516C20.2505 12.5516 20.0572 12.493 19.8928 12.3831C19.7283 12.2732 19.6001 12.117 19.5244 11.9343C19.4488 11.7516 19.429 11.5505 19.4675 11.3565C19.5061 11.1626 19.6014 10.9844 19.7412 10.8445C19.8811 10.7047 20.0593 10.6094 20.2532 10.5708C20.4472 10.5323 20.6483 10.5521 20.831 10.6277C21.0137 10.7034 21.1699 10.8316 21.2798 10.9961C21.3897 11.1605 21.4483 11.3538 21.4483 11.5516C21.4483 11.8168 21.343 12.0712 21.1554 12.2587C20.9679 12.4463 20.7135 12.5516 20.4483 12.5516Z" fill="white"/>
<path d="M16 18.7783C17.5344 18.7783 18.7783 17.5344 18.7783 16C18.7783 14.4656 17.5344 13.2217 16 13.2217C14.4656 13.2217 13.2217 14.4656 13.2217 16C13.2217 17.5344 14.4656 18.7783 16 18.7783Z" fill="white"/>
<path d="M16 0C12.8355 0 9.74207 0.938384 7.11088 2.69649C4.4797 4.45459 2.42894 6.95345 1.21793 9.87706C0.00693252 12.8007 -0.309921 16.0177 0.307443 19.1214C0.924806 22.2251 2.44866 25.0761 4.6863 27.3137C6.92394 29.5513 9.77487 31.0752 12.8786 31.6926C15.9823 32.3099 19.1993 31.9931 22.1229 30.7821C25.0466 29.5711 27.5454 27.5203 29.3035 24.8891C31.0616 22.2579 32 19.1645 32 16C32 13.8989 31.5862 11.8183 30.7821 9.87706C29.978 7.93586 28.7995 6.17203 27.3137 4.68629C25.828 3.20055 24.0642 2.022 22.1229 1.21793C20.1817 0.413852 18.1012 0 16 0ZM24.2833 19.4367C24.269 20.1277 24.1377 20.8112 23.895 21.4583C23.681 22.0118 23.3537 22.5144 22.934 22.934C22.5144 23.3536 22.0118 23.681 21.4583 23.895C20.8112 24.1377 20.1277 24.269 19.4367 24.2833C18.5467 24.3233 18.2633 24.3333 16 24.3333C13.7367 24.3333 13.4533 24.3233 12.5633 24.2833C11.8724 24.269 11.1888 24.1377 10.5417 23.895C9.98821 23.681 9.48557 23.3536 9.06596 22.934C8.64636 22.5144 8.31905 22.0118 8.10501 21.4583C7.86228 20.8112 7.73097 20.1277 7.71667 19.4367C7.67667 18.5467 7.66667 18.2633 7.66667 16C7.66667 13.7367 7.67667 13.4533 7.71667 12.5633C7.73097 11.8723 7.86228 11.1888 8.10501 10.5417C8.31905 9.9882 8.64636 9.48556 9.06596 9.06596C9.48557 8.64635 9.98821 8.31904 10.5417 8.105C11.1888 7.86227 11.8724 7.73097 12.5633 7.71667C13.4533 7.67667 13.7367 7.66667 16 7.66667C18.2633 7.66667 18.5467 7.67667 19.4367 7.71667C20.1277 7.73097 20.8112 7.86227 21.4583 8.105C22.0118 8.31904 22.5144 8.64635 22.934 9.06596C23.3537 9.48556 23.681 9.9882 23.895 10.5417C24.1377 11.1888 24.269 11.8723 24.2833 12.5633C24.3233 13.4533 24.3333 13.7367 24.3333 16C24.3333 18.2633 24.3233 18.5467 24.2833 19.4367Z" fill="white"/>
</g>
<defs>
<clipPath id="clip0">
<rect width="32" height="32" fill="white"/>
</clipPath>
</defs>
</svg>
