<svg width="32" height="32" viewBox="0 0 32 32" fill="none" xmlns="http://www.w3.org/2000/svg">
<path d="M16 0C7.163 0 0 7.163 0 16C0 24.836 7.163 32 16 32C24.837 32 32 24.836 32 16C32 7.163 24.837 0 16 0Z" fill="white"/>
<path d="M18.226 8.88597C16.636 9.46497 15.631 10.957 15.745 12.59L15.783 13.22L15.147 13.143C12.832 12.847 10.809 11.844 9.09098 10.159L8.25098 9.32297L8.03598 9.93997C7.57798 11.316 7.87098 12.77 8.82498 13.748C9.33398 14.288 9.21898 14.365 8.34198 14.044C8.03698 13.941 7.76898 13.864 7.74398 13.903C7.65498 13.993 7.95998 15.163 8.20198 15.627C8.53298 16.271 9.20698 16.9 9.94498 17.274L10.569 17.57L9.82998 17.581C9.11798 17.581 9.09198 17.594 9.16898 17.865C9.42298 18.701 10.428 19.589 11.548 19.975L12.337 20.245L11.65 20.657C10.6115 21.2559 9.43857 21.583 8.23998 21.608C7.66698 21.621 7.19598 21.672 7.19598 21.711C7.19598 21.839 8.74898 22.559 9.65098 22.843C12.361 23.679 15.58 23.318 17.997 21.891C19.715 20.875 21.432 18.855 22.234 16.899C22.667 15.858 23.099 13.954 23.099 13.041C23.099 12.449 23.137 12.372 23.849 11.665C24.269 11.253 24.663 10.803 24.74 10.675C24.868 10.43 24.854 10.43 24.206 10.649C23.125 11.035 22.972 10.984 23.507 10.405C23.901 9.99297 24.372 9.24697 24.372 9.02897C24.372 8.99097 24.181 9.05497 23.965 9.16997C23.736 9.29897 23.227 9.49197 22.845 9.60697L22.158 9.82597L21.535 9.39997C21.191 9.16897 20.709 8.91097 20.454 8.83397C19.804 8.65397 18.812 8.67997 18.226 8.88597Z" fill="#0D1B2B"/>
</svg>
